<svg width="1200" height="630" viewBox="0 0 1200 630" fill="none" xmlns="http://www.w3.org/2000/svg">
  <rect width="1200" height="630" fill="#050604"/>
  <rect width="1200" height="630" fill="url(#paint0_radial_151_18)" fill-opacity="0.9"/>
  <rect width="1200" height="630" fill="url(#paint1_radial_151_18)" fill-opacity="0.65"/>
  <g opacity="0.9">
    <circle cx="178" cy="118" r="2" fill="#F4F2E8"/>
    <circle cx="276" cy="182" r="1.8" fill="#8FF0C8"/>
    <circle cx="418" cy="126" r="2.2" fill="#F5C86B"/>
    <circle cx="856" cy="110" r="2" fill="#78D7FF"/>
    <circle cx="1042" cy="166" r="1.7" fill="#F7A7D8"/>
    <circle cx="964" cy="86" r="1.4" fill="#F4F2E8"/>
    <circle cx="1084" cy="112" r="1.5" fill="#D6EF7F"/>
  </g>
  <g opacity="0.28">
    <path d="M165 398C287.705 303.903 387.064 269.761 476 292C533.14 306.285 579.657 349.509 654 344C725.447 338.705 784.636 288.783 861 278C958.728 264.196 1034.3 303.293 1118 390" stroke="#8FF0C8" stroke-width="2"/>
    <path d="M186 459C284.433 413.356 368.145 397.988 437 407C493.311 414.371 563.871 451.621 626 444C698.37 435.121 753.625 376.264 841 367C929.555 357.61 1020.45 388.553 1088 437" stroke="#78D7FF" stroke-width="2"/>
    <path d="M260 233C363.297 200.528 444.389 192.611 507 209C574.956 226.794 602.295 287.774 681 287C763.418 286.189 825.596 218.417 913 212" stroke="#F5C86B" stroke-width="2"/>
  </g>
  <g filter="url(#filter0_d_151_18)">
    <circle cx="296" cy="404" r="7" fill="#8FF0C8"/>
    <circle cx="432" cy="332" r="10" fill="#F5C86B"/>
    <circle cx="611" cy="348" r="11" fill="#78D7FF"/>
    <circle cx="784" cy="292" r="9" fill="#FF8E8E"/>
    <circle cx="936" cy="378" r="8" fill="#D6EF7F"/>
    <circle cx="1032" cy="432" r="6" fill="#F7A7D8"/>
  </g>
  <rect x="72" y="72" width="540" height="42" rx="21" fill="#FFFFFF" fill-opacity="0.06"/>
  <text x="95" y="95" fill="#8FF0C8" font-family="Arial, Helvetica, sans-serif" font-size="20" font-weight="700" letter-spacing="3.2">
    LIVE GITHUB ACTIVITY VISUALIZER
  </text>
  <text x="72" y="214" fill="#F4F2E8" font-family="Arial, Helvetica, sans-serif" font-size="76" font-weight="700">
    Starfall Atlas
  </text>
  <text x="72" y="280" fill="#D9DDD0" font-family="Arial, Helvetica, sans-serif" font-size="30" font-weight="400">
    Explore repositories, regions, and open-source events
  </text>
  <text x="72" y="324" fill="#D9DDD0" font-family="Arial, Helvetica, sans-serif" font-size="30" font-weight="400">
    through an interactive code galaxy built from public GitHub signals.
  </text>
  <g opacity="0.96">
    <rect x="72" y="432" width="180" height="74" rx="18" fill="#0E1410" stroke="#F4F2E8" stroke-opacity="0.12"/>
    <text x="96" y="463" fill="#A8AA9A" font-family="Arial, Helvetica, sans-serif" font-size="18">Signal</text>
    <text x="96" y="493" fill="#F4F2E8" font-family="Arial, Helvetica, sans-serif" font-size="30" font-weight="700">Live</text>
    <rect x="278" y="432" width="250" height="74" rx="18" fill="#0E1410" stroke="#F4F2E8" stroke-opacity="0.12"/>
    <text x="302" y="463" fill="#A8AA9A" font-family="Arial, Helvetica, sans-serif" font-size="18">Views</text>
    <text x="302" y="493" fill="#F4F2E8" font-family="Arial, Helvetica, sans-serif" font-size="24" font-weight="700">Starfall + Galaxy</text>
    <rect x="554" y="432" width="330" height="74" rx="18" fill="#0E1410" stroke="#F4F2E8" stroke-opacity="0.12"/>
    <text x="578" y="463" fill="#A8AA9A" font-family="Arial, Helvetica, sans-serif" font-size="18">Focus</text>
    <text x="578" y="493" fill="#F4F2E8" font-family="Arial, Helvetica, sans-serif" font-size="22" font-weight="700">Open-source regions</text>
  </g>
  <defs>
    <filter id="filter0_d_151_18" x="277" y="273" width="774" height="178" filterUnits="userSpaceOnUse" color-interpolation-filters="sRGB">
      <feFlood flood-opacity="0" result="BackgroundImageFix"/>
      <feColorMatrix in="SourceAlpha" type="matrix" values="0 0 0 0 0 0 0 0 0 0 0 0 0 0 0 0 0 0 127 0" result="hardAlpha"/>
      <feOffset dy="0"/>
      <feGaussianBlur stdDeviation="6"/>
      <feComposite in2="hardAlpha" operator="out"/>
      <feColorMatrix type="matrix" values="0 0 0 0 0.0705882 0 0 0 0 0.0901961 0 0 0 0 0.0745098 0 0 0 1 0"/>
      <feBlend mode="normal" in2="BackgroundImageFix" result="effect1_dropShadow_151_18"/>
      <feBlend mode="normal" in="SourceGraphic" in2="effect1_dropShadow_151_18" result="shape"/>
    </filter>
    <radialGradient id="paint0_radial_151_18" cx="0" cy="0" r="1" gradientUnits="userSpaceOnUse" gradientTransform="translate(872 172) rotate(136.093) scale(559.389 818.958)">
      <stop stop-color="#8FF0C8" stop-opacity="0.22"/>
      <stop offset="1" stop-color="#8FF0C8" stop-opacity="0"/>
    </radialGradient>
    <radialGradient id="paint1_radial_151_18" cx="0" cy="0" r="1" gradientUnits="userSpaceOnUse" gradientTransform="translate(296 530) rotate(-36.3538) scale(500.518 654.994)">
      <stop stop-color="#F5C86B" stop-opacity="0.2"/>
      <stop offset="1" stop-color="#F5C86B" stop-opacity="0"/>
    </radialGradient>
  </defs>
</svg>
